<svg width="100" height="100" viewBox="0 0 100 100" fill="none" xmlns="http://www.w3.org/2000/svg">
<circle cx="50" cy="50" r="48" stroke="#DDC9A3" stroke-width="4"/>
<path fill-rule="evenodd" clip-rule="evenodd" d="M59.99 27.5795C55.1552 25.4252 49.7535 24.8916 44.5906 26.058C39.4277 27.2245 34.7802 30.0287 31.3412 34.0523C27.9022 38.0759 25.856 43.1034 25.5078 48.385C25.1595 53.6666 26.5278 58.9192 29.4087 63.3596C32.2896 67.7999 36.5287 71.1901 41.4937 73.0244C46.4587 74.8587 51.8837 75.0389 56.9595 73.5382C62.0353 72.0374 66.49 68.9361 69.6593 64.6967C72.8285 60.4573 74.5424 55.3071 74.5455 50.014V47.5065C74.5455 46.0003 75.7665 44.7792 77.2727 44.7792C78.779 44.7792 80 46.0003 80 47.5065V50.0156C79.9963 56.4849 77.9015 62.7812 74.028 67.9626C70.1545 73.1441 64.7098 76.9346 58.5061 78.7689C52.3023 80.6031 45.6718 80.3829 39.6034 78.1409C33.535 75.899 28.354 71.7555 24.8329 66.3284C21.3118 60.9013 19.6394 54.4813 20.065 48.0261C20.4907 41.5709 22.9916 35.4261 27.1948 30.5084C31.3981 25.5906 37.0784 22.1633 43.3886 20.7376C49.6988 19.3119 56.3008 19.9642 62.21 22.5972C63.5858 23.2102 64.2042 24.8225 63.5912 26.1983C62.9781 27.5742 61.3658 28.1925 59.99 27.5795Z" fill="#006455"/>
<path fill-rule="evenodd" clip-rule="evenodd" d="M79.2109 26.2676C80.2765 27.3321 80.2773 29.0589 79.2128 30.1245L51.9401 57.4245C51.4287 57.9364 50.7349 58.2241 50.0113 58.2243C49.2878 58.2244 48.5938 57.9371 48.0822 57.4255L39.9004 49.2436C38.8353 48.1786 38.8353 46.4518 39.9004 45.3867C40.9654 44.3216 42.6922 44.3216 43.7573 45.3867L50.0097 51.6391L75.3539 26.2695C76.4185 25.2039 78.1453 25.203 79.2109 26.2676Z" fill="#006455"/>
</svg>
